<svg width="16" height="16" viewBox="0 0 16 16" fill="none" xmlns="http://www.w3.org/2000/svg">
<g clip-path="url(#clip0_188_3931)">
<path d="M5.33268 14.6663C5.70087 14.6663 5.99935 14.3679 5.99935 13.9997C5.99935 13.6315 5.70087 13.333 5.33268 13.333C4.96449 13.333 4.66602 13.6315 4.66602 13.9997C4.66602 14.3679 4.96449 14.6663 5.33268 14.6663Z" stroke="#0A0A0A" stroke-width="1.33333" stroke-linecap="round" stroke-linejoin="round"/>
<path d="M12.6667 14.6663C13.0349 14.6663 13.3333 14.3679 13.3333 13.9997C13.3333 13.6315 13.0349 13.333 12.6667 13.333C12.2985 13.333 12 13.6315 12 13.9997C12 14.3679 12.2985 14.6663 12.6667 14.6663Z" stroke="#0A0A0A" stroke-width="1.33333" stroke-linecap="round" stroke-linejoin="round"/>
<path d="M1.36719 1.36621H2.70052L4.47385 9.64621C4.53891 9.94945 4.70763 10.2205 4.951 10.4128C5.19436 10.605 5.49712 10.7064 5.80719 10.6995H12.3272C12.6306 10.6991 12.9248 10.5951 13.1612 10.4048C13.3976 10.2145 13.5619 9.94923 13.6272 9.65288L14.7272 4.69954H3.41385" stroke="#0A0A0A" stroke-width="1.33333" stroke-linecap="round" stroke-linejoin="round"/>
</g>
<defs>
<clipPath id="clip0_188_3931">
<rect width="16" height="16" fill="white"/>
</clipPath>
</defs>
</svg>
