<svg width="32" height="32" viewBox="0 0 32 32" fill="none" xmlns="http://www.w3.org/2000/svg">
<path d="M26.6632 17.3318C26.6632 23.9977 21.997 27.3307 16.4509 29.2639C16.1605 29.3623 15.845 29.3576 15.5576 29.2505C9.99821 27.3307 5.33203 23.9977 5.33203 17.3318V7.9994C5.33203 7.64581 5.47249 7.30671 5.72252 7.05668C5.97254 6.80666 6.31164 6.6662 6.66523 6.6662C9.33162 6.6662 12.6646 5.06637 14.9844 3.03991C15.2668 2.7986 15.6261 2.66602 15.9976 2.66602C16.3691 2.66602 16.7284 2.7986 17.0108 3.03991C19.3439 5.0797 22.6636 6.6662 25.33 6.6662C25.6835 6.6662 26.0226 6.80666 26.2727 7.05668C26.5227 7.30671 26.6632 7.64581 26.6632 7.9994V17.3318Z" stroke="white" stroke-width="2.66639" stroke-linecap="round" stroke-linejoin="round"/>
</svg>
