<svg width="32" height="32" viewBox="0 0 32 32" fill="none" xmlns="http://www.w3.org/2000/svg">
<path d="M18.6644 23.9977V7.9994C18.6644 7.29223 18.3834 6.61402 17.8834 6.11398C17.3833 5.61393 16.7051 5.33301 15.998 5.33301H5.33241C4.62524 5.33301 3.94703 5.61393 3.44698 6.11398C2.94694 6.61402 2.66602 7.29223 2.66602 7.9994V22.6645C2.66602 23.0181 2.80648 23.3572 3.0565 23.6073C3.30652 23.8573 3.64563 23.9977 3.99921 23.9977H6.6656" stroke="white" stroke-width="2.66639" stroke-linecap="round" stroke-linejoin="round"/>
<path d="M19.9972 23.9971H11.998" stroke="white" stroke-width="2.66639" stroke-linecap="round" stroke-linejoin="round"/>
<path d="M25.33 23.998H27.9964C28.35 23.998 28.6891 23.8575 28.9391 23.6075C29.1892 23.3575 29.3296 23.0184 29.3296 22.6648V17.7986C29.3291 17.4961 29.2257 17.2027 29.0363 16.9667L24.3968 11.1673C24.2721 11.0112 24.1139 10.885 23.9339 10.7983C23.7539 10.7115 23.5567 10.6663 23.3569 10.666H18.6641" stroke="white" stroke-width="2.66639" stroke-linecap="round" stroke-linejoin="round"/>
<path d="M22.6644 26.6638C24.137 26.6638 25.3308 25.4701 25.3308 23.9974C25.3308 22.5248 24.137 21.3311 22.6644 21.3311C21.1918 21.3311 19.998 22.5248 19.998 23.9974C19.998 25.4701 21.1918 26.6638 22.6644 26.6638Z" stroke="white" stroke-width="2.66639" stroke-linecap="round" stroke-linejoin="round"/>
<path d="M9.33241 26.6638C10.805 26.6638 11.9988 25.4701 11.9988 23.9974C11.9988 22.5248 10.805 21.3311 9.33241 21.3311C7.8598 21.3311 6.66602 22.5248 6.66602 23.9974C6.66602 25.4701 7.8598 26.6638 9.33241 26.6638Z" stroke="white" stroke-width="2.66639" stroke-linecap="round" stroke-linejoin="round"/>
</svg>
